<?xml version="1.0" encoding="utf-8"?>
<!-- Generator: Adobe Illustrator 27.5.0, SVG Export Plug-In . SVG Version: 6.00 Build 0)  -->
<svg version="1.1" id="Layer_1" xmlns="http://www.w3.org/2000/svg" xmlns:xlink="http://www.w3.org/1999/xlink" x="0px" y="0px"
	 viewBox="0 0 2807 1604" style="enable-background:new 0 0 2807 1604;" xml:space="preserve">
<rect style="fill:#FFFFFF;" width="2806.243" height="1603.568"/>
<g style="opacity:0.3;">
	<defs>
		<rect id="SVGID_1_" style="opacity:0.3;" width="2806.243" height="1603.568"/>
	</defs>
	<use xlink:href="#SVGID_1_"  style="overflow:visible;fill:#FFFFFF;"/>
	<clipPath id="SVGID_00000018922189560002410100000007841840751646307719_">
		<use xlink:href="#SVGID_1_"  style="overflow:visible;"/>
	</clipPath>
	<g style="clip-path:url(#SVGID_00000018922189560002410100000007841840751646307719_);">
		<rect x="-126.078" y="-3.639" style="opacity:0.3;fill:#A6A6A6;" width="117.936" height="115.555"/>
		<rect x="-8.141" y="-3.639" style="opacity:0.72;fill:#A6A6A6;" width="117.936" height="115.555"/>
		<rect x="109.795" y="-3.639" style="opacity:0.68;fill:#A6A6A6;" width="117.936" height="115.555"/>
		<rect x="227.731" y="-3.639" style="opacity:0.55;fill:#A6A6A6;" width="117.936" height="115.555"/>
		<rect x="345.667" y="-3.639" style="opacity:0.06;fill:#A6A6A6;" width="117.936" height="115.555"/>
		<rect x="463.603" y="-3.639" style="opacity:0.91;fill:#A6A6A6;" width="117.936" height="115.555"/>
		<rect x="581.539" y="-3.639" style="opacity:0.73;fill:#A6A6A6;" width="117.936" height="115.555"/>
		<rect x="699.476" y="-3.639" style="opacity:0.59;fill:#A6A6A6;" width="117.936" height="115.555"/>
		<rect x="817.412" y="-3.639" style="opacity:0.89;fill:#A6A6A6;" width="117.936" height="115.555"/>
		<rect x="935.348" y="-3.639" style="opacity:0.1;fill:#A6A6A6;" width="117.936" height="115.555"/>
		<rect x="1053.284" y="-3.639" style="fill:#A6A6A6;" width="117.936" height="115.555"/>
		<rect x="1171.22" y="-3.639" style="opacity:0.78;fill:#A6A6A6;" width="117.936" height="115.555"/>
		<rect x="1289.156" y="-3.639" style="opacity:0.67;fill:#A6A6A6;" width="117.936" height="115.555"/>
		<rect x="1407.093" y="-3.639" style="opacity:0.35;fill:#A6A6A6;" width="117.936" height="115.555"/>
		<rect x="1525.029" y="-3.639" style="opacity:0.85;fill:#A6A6A6;" width="117.936" height="115.555"/>
		<rect x="1642.965" y="-3.639" style="opacity:0.82;fill:#A6A6A6;" width="117.936" height="115.555"/>
		<rect x="1760.901" y="-3.639" style="opacity:0.86;fill:#A6A6A6;" width="117.936" height="115.555"/>
		<rect x="1878.837" y="-3.639" style="opacity:0.46;fill:#A6A6A6;" width="117.936" height="115.555"/>
		<rect x="1996.773" y="-3.639" style="opacity:0.08;fill:#A6A6A6;" width="117.936" height="115.555"/>
		<rect x="2114.71" y="-3.639" style="opacity:0.57;fill:#A6A6A6;" width="117.936" height="115.555"/>
		<rect x="2232.646" y="-3.639" style="opacity:0.5;fill:#A6A6A6;" width="117.936" height="115.555"/>
		<rect x="2350.582" y="-3.639" style="opacity:0.22;fill:#A6A6A6;" width="117.936" height="115.555"/>
		<rect x="2468.518" y="-3.639" style="opacity:0.68;fill:#A6A6A6;" width="117.936" height="115.555"/>
		<rect x="2586.454" y="-3.639" style="opacity:0.82;fill:#A6A6A6;" width="117.936" height="115.555"/>
		<rect x="2704.39" y="-3.639" style="opacity:0.82;fill:#A6A6A6;" width="117.936" height="115.555"/>
		<rect x="-126.078" y="111.917" style="opacity:0.59;fill:#A6A6A6;" width="117.936" height="115.555"/>
		<rect x="-8.141" y="111.917" style="opacity:0.12;fill:#A6A6A6;" width="117.936" height="115.555"/>
		<rect x="109.795" y="111.917" style="opacity:0.72;fill:#A6A6A6;" width="117.936" height="115.555"/>
		<rect x="227.731" y="111.917" style="opacity:0.79;fill:#A6A6A6;" width="117.936" height="115.555"/>
		<rect x="345.667" y="111.917" style="opacity:0.03;fill:#A6A6A6;" width="117.936" height="115.555"/>
		<rect x="463.603" y="111.917" style="opacity:0.5;fill:#A6A6A6;" width="117.936" height="115.555"/>
		<rect x="581.539" y="111.917" style="opacity:0.79;fill:#A6A6A6;" width="117.936" height="115.555"/>
		<rect x="699.476" y="111.917" style="opacity:0.02;fill:#A6A6A6;" width="117.936" height="115.555"/>
		<rect x="817.412" y="111.917" style="opacity:0.28;fill:#A6A6A6;" width="117.936" height="115.555"/>
		<rect x="935.348" y="111.917" style="opacity:0.32;fill:#A6A6A6;" width="117.936" height="115.555"/>
		<rect x="1053.284" y="111.917" style="opacity:0.54;fill:#A6A6A6;" width="117.936" height="115.555"/>
		<rect x="1171.22" y="111.917" style="opacity:0.28;fill:#A6A6A6;" width="117.936" height="115.555"/>
		<rect x="1289.156" y="111.917" style="opacity:0.71;fill:#A6A6A6;" width="117.936" height="115.555"/>
		<rect x="1407.093" y="111.917" style="opacity:0.19;fill:#A6A6A6;" width="117.936" height="115.555"/>
		<rect x="1525.029" y="111.917" style="opacity:0.59;fill:#A6A6A6;" width="117.936" height="115.555"/>
		<rect x="1642.965" y="111.917" style="opacity:0.93;fill:#A6A6A6;" width="117.936" height="115.555"/>
		<rect x="1760.901" y="111.917" style="opacity:0.5;fill:#A6A6A6;" width="117.936" height="115.555"/>
		<rect x="1878.837" y="111.917" style="opacity:0.56;fill:#A6A6A6;" width="117.936" height="115.555"/>
		<rect x="1996.773" y="111.917" style="opacity:0.35;fill:#A6A6A6;" width="117.936" height="115.555"/>
		<rect x="2114.71" y="111.917" style="opacity:0.8;fill:#A6A6A6;" width="117.936" height="115.555"/>
		<rect x="2232.646" y="111.917" style="opacity:0.99;fill:#A6A6A6;" width="117.936" height="115.555"/>
		<rect x="2350.582" y="111.917" style="opacity:0.37;fill:#A6A6A6;" width="117.936" height="115.555"/>
		<rect x="2468.518" y="111.917" style="opacity:0.07;fill:#A6A6A6;" width="117.936" height="115.555"/>
		<rect x="2586.454" y="111.917" style="opacity:0.67;fill:#A6A6A6;" width="117.936" height="115.555"/>
		<rect x="2704.39" y="111.917" style="opacity:0.14;fill:#A6A6A6;" width="117.936" height="115.555"/>
		<rect x="-126.078" y="227.472" style="opacity:0.09;fill:#A6A6A6;" width="117.936" height="115.555"/>
		<rect x="-8.141" y="227.472" style="opacity:0.53;fill:#A6A6A6;" width="117.936" height="115.555"/>
		<rect x="109.795" y="227.472" style="opacity:0.81;fill:#A6A6A6;" width="117.936" height="115.555"/>
		<rect x="227.731" y="227.472" style="opacity:0.63;fill:#A6A6A6;" width="117.936" height="115.555"/>
		<rect x="345.667" y="227.472" style="opacity:0.72;fill:#A6A6A6;" width="117.936" height="115.555"/>
		<rect x="463.603" y="227.472" style="opacity:0.92;fill:#A6A6A6;" width="117.936" height="115.555"/>
		<rect x="581.539" y="227.472" style="opacity:0.83;fill:#A6A6A6;" width="117.936" height="115.555"/>
		<rect x="699.476" y="227.472" style="opacity:0.54;fill:#A6A6A6;" width="117.936" height="115.555"/>
		<rect x="817.412" y="227.472" style="opacity:0.42;fill:#A6A6A6;" width="117.936" height="115.555"/>
		<rect x="935.348" y="227.472" style="opacity:0.28;fill:#A6A6A6;" width="117.936" height="115.555"/>
		<rect x="1053.284" y="227.472" style="opacity:0.27;fill:#A6A6A6;" width="117.936" height="115.555"/>
		<rect x="1171.22" y="227.472" style="opacity:0.09;fill:#A6A6A6;" width="117.936" height="115.555"/>
		<rect x="1289.156" y="227.472" style="opacity:0.37;fill:#A6A6A6;" width="117.936" height="115.555"/>
		<rect x="1407.093" y="227.472" style="opacity:0.21;fill:#A6A6A6;" width="117.936" height="115.555"/>
		<rect x="1525.029" y="227.472" style="opacity:0.23;fill:#A6A6A6;" width="117.936" height="115.555"/>
		<rect x="1642.965" y="227.472" style="opacity:0.46;fill:#A6A6A6;" width="117.936" height="115.555"/>
		<rect x="1760.901" y="227.472" style="opacity:0.28;fill:#A6A6A6;" width="117.936" height="115.555"/>
		<rect x="1878.837" y="227.472" style="opacity:0.92;fill:#A6A6A6;" width="117.936" height="115.555"/>
		<rect x="1996.773" y="227.472" style="opacity:0.43;fill:#A6A6A6;" width="117.936" height="115.555"/>
		<rect x="2114.71" y="227.472" style="opacity:0.96;fill:#A6A6A6;" width="117.936" height="115.555"/>
		<rect x="2232.646" y="227.472" style="opacity:0.47;fill:#A6A6A6;" width="117.936" height="115.555"/>
		<rect x="2350.582" y="227.472" style="opacity:0.56;fill:#A6A6A6;" width="117.936" height="115.555"/>
		<rect x="2468.518" y="227.472" style="opacity:0.9;fill:#A6A6A6;" width="117.936" height="115.555"/>
		<rect x="2586.454" y="227.472" style="opacity:0.83;fill:#A6A6A6;" width="117.936" height="115.555"/>
		<rect x="2704.39" y="227.472" style="opacity:0.72;fill:#A6A6A6;" width="117.936" height="115.555"/>
		<rect x="-126.078" y="343.027" style="opacity:0.86;fill:#A6A6A6;" width="117.936" height="115.555"/>
		<rect x="-8.141" y="343.027" style="opacity:0.89;fill:#A6A6A6;" width="117.936" height="115.555"/>
		<rect x="109.795" y="343.027" style="opacity:0.87;fill:#A6A6A6;" width="117.936" height="115.555"/>
		<rect x="227.731" y="343.027" style="opacity:0.86;fill:#A6A6A6;" width="117.936" height="115.555"/>
		<rect x="345.667" y="343.027" style="opacity:0.9;fill:#A6A6A6;" width="117.936" height="115.555"/>
		<rect x="463.603" y="343.027" style="opacity:0.1;fill:#A6A6A6;" width="117.936" height="115.555"/>
		<rect x="581.539" y="343.027" style="opacity:0;fill:#A6A6A6;" width="117.936" height="115.555"/>
		<rect x="699.476" y="343.027" style="opacity:0.34;fill:#A6A6A6;" width="117.936" height="115.555"/>
		<rect x="817.412" y="343.027" style="opacity:0.2;fill:#A6A6A6;" width="117.936" height="115.555"/>
		<rect x="935.348" y="343.027" style="opacity:0.74;fill:#A6A6A6;" width="117.936" height="115.555"/>
		<rect x="1053.284" y="343.027" style="opacity:0.21;fill:#A6A6A6;" width="117.936" height="115.555"/>
		<rect x="1171.22" y="343.027" style="opacity:0.81;fill:#A6A6A6;" width="117.936" height="115.555"/>
		<rect x="1289.156" y="343.027" style="opacity:0.87;fill:#A6A6A6;" width="117.936" height="115.555"/>
		<rect x="1407.093" y="343.027" style="opacity:0.61;fill:#A6A6A6;" width="117.936" height="115.555"/>
		<rect x="1525.029" y="343.027" style="opacity:0.77;fill:#A6A6A6;" width="117.936" height="115.555"/>
		<rect x="1642.965" y="343.027" style="opacity:0.68;fill:#A6A6A6;" width="117.936" height="115.555"/>
		<rect x="1760.901" y="343.027" style="opacity:0.97;fill:#A6A6A6;" width="117.936" height="115.555"/>
		<rect x="1878.837" y="343.027" style="opacity:0.8;fill:#A6A6A6;" width="117.936" height="115.555"/>
		<rect x="1996.773" y="343.027" style="opacity:0.33;fill:#A6A6A6;" width="117.936" height="115.555"/>
		<rect x="2114.71" y="343.027" style="opacity:0;fill:#A6A6A6;" width="117.936" height="115.555"/>
		<rect x="2232.646" y="343.027" style="opacity:0.89;fill:#A6A6A6;" width="117.936" height="115.555"/>
		<rect x="2350.582" y="343.027" style="opacity:0.97;fill:#A6A6A6;" width="117.936" height="115.555"/>
		<rect x="2468.518" y="343.027" style="opacity:0.81;fill:#A6A6A6;" width="117.936" height="115.555"/>
		<rect x="2586.454" y="343.027" style="opacity:0.63;fill:#A6A6A6;" width="117.936" height="115.555"/>
		<rect x="2704.39" y="343.027" style="opacity:0.92;fill:#A6A6A6;" width="117.936" height="115.555"/>
		<rect x="-126.078" y="458.582" style="opacity:0;fill:#A6A6A6;" width="117.936" height="115.555"/>
		<rect x="-8.141" y="458.582" style="opacity:0.4;fill:#A6A6A6;" width="117.936" height="115.555"/>
		<rect x="109.795" y="458.582" style="opacity:0.58;fill:#A6A6A6;" width="117.936" height="115.555"/>
		<rect x="227.731" y="458.582" style="opacity:0.73;fill:#A6A6A6;" width="117.936" height="115.555"/>
		<rect x="345.667" y="458.582" style="opacity:0.97;fill:#A6A6A6;" width="117.936" height="115.555"/>
		<rect x="463.603" y="458.582" style="opacity:0.95;fill:#A6A6A6;" width="117.936" height="115.555"/>
		<rect x="581.539" y="458.582" style="opacity:0.12;fill:#A6A6A6;" width="117.936" height="115.555"/>
		<rect x="699.476" y="458.582" style="opacity:0;fill:#A6A6A6;" width="117.936" height="115.555"/>
		<rect x="817.412" y="458.582" style="opacity:0.98;fill:#A6A6A6;" width="117.936" height="115.555"/>
		<rect x="935.348" y="458.582" style="opacity:0.91;fill:#A6A6A6;" width="117.936" height="115.555"/>
		<rect x="1053.284" y="458.582" style="opacity:0.22;fill:#A6A6A6;" width="117.936" height="115.555"/>
		<rect x="1171.22" y="458.582" style="opacity:0.88;fill:#A6A6A6;" width="117.936" height="115.555"/>
		<rect x="1289.156" y="458.582" style="opacity:0.21;fill:#A6A6A6;" width="117.936" height="115.555"/>
		<rect x="1407.093" y="458.582" style="opacity:0.96;fill:#A6A6A6;" width="117.936" height="115.555"/>
		<rect x="1525.029" y="458.582" style="opacity:0.8;fill:#A6A6A6;" width="117.936" height="115.555"/>
		<rect x="1642.965" y="458.582" style="opacity:0.5;fill:#A6A6A6;" width="117.936" height="115.555"/>
		<rect x="1760.901" y="458.582" style="opacity:0.55;fill:#A6A6A6;" width="117.936" height="115.555"/>
		<rect x="1878.837" y="458.582" style="opacity:0.81;fill:#A6A6A6;" width="117.936" height="115.555"/>
		<rect x="1996.773" y="458.582" style="opacity:0.56;fill:#A6A6A6;" width="117.936" height="115.555"/>
		<rect x="2114.71" y="458.582" style="opacity:0.36;fill:#A6A6A6;" width="117.936" height="115.555"/>
		<rect x="2232.646" y="458.582" style="opacity:0.84;fill:#A6A6A6;" width="117.936" height="115.555"/>
		<rect x="2350.582" y="458.582" style="opacity:0.98;fill:#A6A6A6;" width="117.936" height="115.555"/>
		<rect x="2468.518" y="458.582" style="opacity:0.89;fill:#A6A6A6;" width="117.936" height="115.555"/>
		<rect x="2586.454" y="458.582" style="opacity:0.67;fill:#A6A6A6;" width="117.936" height="115.555"/>
		<rect x="2704.39" y="458.582" style="opacity:0.64;fill:#A6A6A6;" width="117.936" height="115.555"/>
		<rect x="-126.078" y="574.137" style="opacity:0.25;fill:#A6A6A6;" width="117.936" height="115.555"/>
		<rect x="-8.141" y="574.137" style="opacity:0.49;fill:#A6A6A6;" width="117.936" height="115.555"/>
		<rect x="109.795" y="574.137" style="opacity:0.36;fill:#A6A6A6;" width="117.936" height="115.555"/>
		<rect x="227.731" y="574.137" style="opacity:0.29;fill:#A6A6A6;" width="117.936" height="115.555"/>
		<rect x="345.667" y="574.137" style="opacity:0.56;fill:#A6A6A6;" width="117.936" height="115.555"/>
		<rect x="463.603" y="574.137" style="opacity:0.19;fill:#A6A6A6;" width="117.936" height="115.555"/>
		<rect x="581.539" y="574.137" style="opacity:0.16;fill:#A6A6A6;" width="117.936" height="115.555"/>
		<rect x="699.476" y="574.137" style="opacity:0.06;fill:#A6A6A6;" width="117.936" height="115.555"/>
		<rect x="817.412" y="574.137" style="opacity:0.95;fill:#A6A6A6;" width="117.936" height="115.555"/>
		<rect x="935.348" y="574.137" style="opacity:0.78;fill:#A6A6A6;" width="117.936" height="115.555"/>
		<rect x="1053.284" y="574.137" style="opacity:0.26;fill:#A6A6A6;" width="117.936" height="115.555"/>
		<rect x="1171.22" y="574.137" style="opacity:0.34;fill:#A6A6A6;" width="117.936" height="115.555"/>
		<rect x="1289.156" y="574.137" style="opacity:0.39;fill:#A6A6A6;" width="117.936" height="115.555"/>
		<rect x="1407.093" y="574.137" style="opacity:0.16;fill:#A6A6A6;" width="117.936" height="115.555"/>
		<rect x="1525.029" y="574.137" style="opacity:0.91;fill:#A6A6A6;" width="117.936" height="115.555"/>
		<rect x="1642.965" y="574.137" style="opacity:0.59;fill:#A6A6A6;" width="117.936" height="115.555"/>
		<rect x="1760.901" y="574.137" style="opacity:0.16;fill:#A6A6A6;" width="117.936" height="115.555"/>
		<rect x="1878.837" y="574.137" style="opacity:0.73;fill:#A6A6A6;" width="117.936" height="115.555"/>
		<rect x="1996.773" y="574.137" style="opacity:0.52;fill:#A6A6A6;" width="117.936" height="115.555"/>
		<rect x="2114.71" y="574.137" style="opacity:0.09;fill:#A6A6A6;" width="117.936" height="115.555"/>
		<rect x="2232.646" y="574.137" style="opacity:0.55;fill:#A6A6A6;" width="117.936" height="115.555"/>
		<rect x="2350.582" y="574.137" style="opacity:0.18;fill:#A6A6A6;" width="117.936" height="115.555"/>
		<rect x="2468.518" y="574.137" style="opacity:0.77;fill:#A6A6A6;" width="117.936" height="115.555"/>
		<rect x="2586.454" y="574.137" style="opacity:0.05;fill:#A6A6A6;" width="117.936" height="115.555"/>
		<rect x="2704.39" y="574.137" style="opacity:0.38;fill:#A6A6A6;" width="117.936" height="115.555"/>
		<rect x="-126.078" y="689.692" style="opacity:0.92;fill:#A6A6A6;" width="117.936" height="115.555"/>
		<rect x="-8.141" y="689.692" style="opacity:0.02;fill:#A6A6A6;" width="117.936" height="115.555"/>
		<rect x="109.795" y="689.692" style="opacity:0.22;fill:#A6A6A6;" width="117.936" height="115.555"/>
		<rect x="227.731" y="689.692" style="opacity:0.5;fill:#A6A6A6;" width="117.936" height="115.555"/>
		<rect x="345.667" y="689.692" style="opacity:0.88;fill:#A6A6A6;" width="117.936" height="115.555"/>
		<rect x="463.603" y="689.692" style="opacity:0.72;fill:#A6A6A6;" width="117.936" height="115.555"/>
		<rect x="581.539" y="689.692" style="opacity:0.61;fill:#A6A6A6;" width="117.936" height="115.555"/>
		<rect x="699.476" y="689.692" style="opacity:0.48;fill:#A6A6A6;" width="117.936" height="115.555"/>
		<rect x="817.412" y="689.692" style="opacity:0.19;fill:#A6A6A6;" width="117.936" height="115.555"/>
		<rect x="935.348" y="689.692" style="opacity:0.1;fill:#A6A6A6;" width="117.936" height="115.555"/>
		<rect x="1053.284" y="689.692" style="opacity:0.31;fill:#A6A6A6;" width="117.936" height="115.555"/>
		<rect x="1171.22" y="689.692" style="opacity:0.61;fill:#A6A6A6;" width="117.936" height="115.555"/>
		<rect x="1289.156" y="689.692" style="opacity:0.6;fill:#A6A6A6;" width="117.936" height="115.555"/>
		<rect x="1407.093" y="689.692" style="opacity:0.7;fill:#A6A6A6;" width="117.936" height="115.555"/>
		<rect x="1525.029" y="689.692" style="opacity:0.16;fill:#A6A6A6;" width="117.936" height="115.555"/>
		<rect x="1642.965" y="689.692" style="opacity:0.65;fill:#A6A6A6;" width="117.936" height="115.555"/>
		<rect x="1760.901" y="689.692" style="opacity:0.65;fill:#A6A6A6;" width="117.936" height="115.555"/>
		<rect x="1878.837" y="689.692" style="opacity:0.23;fill:#A6A6A6;" width="117.936" height="115.555"/>
		<rect x="1996.773" y="689.692" style="opacity:0.24;fill:#A6A6A6;" width="117.936" height="115.555"/>
		<rect x="2114.71" y="689.692" style="opacity:0.31;fill:#A6A6A6;" width="117.936" height="115.555"/>
		<rect x="2232.646" y="689.692" style="opacity:0.05;fill:#A6A6A6;" width="117.936" height="115.555"/>
		<rect x="2350.582" y="689.692" style="opacity:0.08;fill:#A6A6A6;" width="117.936" height="115.555"/>
		<rect x="2468.518" y="689.692" style="opacity:0.82;fill:#A6A6A6;" width="117.936" height="115.555"/>
		<rect x="2586.454" y="689.692" style="opacity:0.88;fill:#A6A6A6;" width="117.936" height="115.555"/>
		<rect x="2704.39" y="689.692" style="opacity:0.86;fill:#A6A6A6;" width="117.936" height="115.555"/>
		<rect x="-126.078" y="805.247" style="opacity:0.26;fill:#A6A6A6;" width="117.936" height="115.555"/>
		<rect x="-8.141" y="805.247" style="opacity:0.85;fill:#A6A6A6;" width="117.936" height="115.555"/>
		<rect x="109.795" y="805.247" style="fill:#A6A6A6;" width="117.936" height="115.555"/>
		<rect x="227.731" y="805.247" style="opacity:0.02;fill:#A6A6A6;" width="117.936" height="115.555"/>
		<rect x="345.667" y="805.247" style="opacity:0.76;fill:#A6A6A6;" width="117.936" height="115.555"/>
		<rect x="463.603" y="805.247" style="opacity:0.58;fill:#A6A6A6;" width="117.936" height="115.555"/>
		<rect x="581.539" y="805.247" style="opacity:0.08;fill:#A6A6A6;" width="117.936" height="115.555"/>
		<rect x="699.476" y="805.247" style="opacity:0.07;fill:#A6A6A6;" width="117.936" height="115.555"/>
		<rect x="817.412" y="805.247" style="opacity:0.35;fill:#A6A6A6;" width="117.936" height="115.555"/>
		<rect x="935.348" y="805.247" style="opacity:0.52;fill:#A6A6A6;" width="117.936" height="115.555"/>
		<rect x="1053.284" y="805.247" style="opacity:0.35;fill:#A6A6A6;" width="117.936" height="115.555"/>
		<rect x="1171.22" y="805.247" style="opacity:0.21;fill:#A6A6A6;" width="117.936" height="115.555"/>
		<rect x="1289.156" y="805.247" style="opacity:0.83;fill:#A6A6A6;" width="117.936" height="115.555"/>
		<rect x="1407.093" y="805.247" style="opacity:0.06;fill:#A6A6A6;" width="117.936" height="115.555"/>
		<rect x="1525.029" y="805.247" style="opacity:0.84;fill:#A6A6A6;" width="117.936" height="115.555"/>
		<rect x="1642.965" y="805.247" style="opacity:0.76;fill:#A6A6A6;" width="117.936" height="115.555"/>
		<rect x="1760.901" y="805.247" style="opacity:0.47;fill:#A6A6A6;" width="117.936" height="115.555"/>
		<rect x="1878.837" y="805.247" style="opacity:0.14;fill:#A6A6A6;" width="117.936" height="115.555"/>
		<rect x="1996.773" y="805.247" style="opacity:0.48;fill:#A6A6A6;" width="117.936" height="115.555"/>
		<rect x="2114.71" y="805.247" style="opacity:0.24;fill:#A6A6A6;" width="117.936" height="115.555"/>
		<rect x="2232.646" y="805.247" style="opacity:0.99;fill:#A6A6A6;" width="117.936" height="115.555"/>
		<rect x="2350.582" y="805.247" style="opacity:0.4;fill:#A6A6A6;" width="117.936" height="115.555"/>
		<rect x="2468.518" y="805.247" style="opacity:0.73;fill:#A6A6A6;" width="117.936" height="115.555"/>
		<rect x="2586.454" y="805.247" style="opacity:0.03;fill:#A6A6A6;" width="117.936" height="115.555"/>
		<rect x="2704.39" y="805.247" style="opacity:0.59;fill:#A6A6A6;" width="117.936" height="115.555"/>
		<rect x="-126.078" y="920.802" style="opacity:0.94;fill:#A6A6A6;" width="117.936" height="115.555"/>
		<rect x="-8.141" y="920.802" style="opacity:0.56;fill:#A6A6A6;" width="117.936" height="115.555"/>
		<rect x="109.795" y="920.802" style="opacity:0.75;fill:#A6A6A6;" width="117.936" height="115.555"/>
		<rect x="227.731" y="920.802" style="opacity:0.47;fill:#A6A6A6;" width="117.936" height="115.555"/>
		<rect x="345.667" y="920.802" style="opacity:0.27;fill:#A6A6A6;" width="117.936" height="115.555"/>
		<rect x="463.603" y="920.802" style="opacity:0.42;fill:#A6A6A6;" width="117.936" height="115.555"/>
		<rect x="581.539" y="920.802" style="opacity:0.4;fill:#A6A6A6;" width="117.936" height="115.555"/>
		<rect x="699.476" y="920.802" style="opacity:0.4;fill:#A6A6A6;" width="117.936" height="115.555"/>
		<rect x="817.412" y="920.802" style="opacity:0.61;fill:#A6A6A6;" width="117.936" height="115.555"/>
		<rect x="935.348" y="920.802" style="opacity:0.16;fill:#A6A6A6;" width="117.936" height="115.555"/>
		<rect x="1053.284" y="920.802" style="opacity:0.6;fill:#A6A6A6;" width="117.936" height="115.555"/>
		<rect x="1171.22" y="920.802" style="opacity:0.62;fill:#A6A6A6;" width="117.936" height="115.555"/>
		<rect x="1289.156" y="920.802" style="opacity:0;fill:#A6A6A6;" width="117.936" height="115.555"/>
		<rect x="1407.093" y="920.802" style="opacity:0.2;fill:#A6A6A6;" width="117.936" height="115.555"/>
		<rect x="1525.029" y="920.802" style="opacity:0.52;fill:#A6A6A6;" width="117.936" height="115.555"/>
		<rect x="1642.965" y="920.802" style="opacity:0.77;fill:#A6A6A6;" width="117.936" height="115.555"/>
		<rect x="1760.901" y="920.802" style="opacity:0.5;fill:#A6A6A6;" width="117.936" height="115.555"/>
		<rect x="1878.837" y="920.802" style="opacity:0.17;fill:#A6A6A6;" width="117.936" height="115.555"/>
		<rect x="1996.773" y="920.802" style="opacity:0.27;fill:#A6A6A6;" width="117.936" height="115.555"/>
		<rect x="2114.71" y="920.802" style="opacity:0.12;fill:#A6A6A6;" width="117.936" height="115.555"/>
		<rect x="2232.646" y="920.802" style="opacity:0.86;fill:#A6A6A6;" width="117.936" height="115.555"/>
		<rect x="2350.582" y="920.802" style="opacity:0.26;fill:#A6A6A6;" width="117.936" height="115.555"/>
		<rect x="2468.518" y="920.802" style="opacity:0.12;fill:#A6A6A6;" width="117.936" height="115.555"/>
		<rect x="2586.454" y="920.802" style="opacity:0.75;fill:#A6A6A6;" width="117.936" height="115.555"/>
		<rect x="2704.39" y="920.802" style="opacity:0.96;fill:#A6A6A6;" width="117.936" height="115.555"/>
		<rect x="-126.078" y="1036.358" style="opacity:0.38;fill:#A6A6A6;" width="117.936" height="115.555"/>
		<rect x="-8.141" y="1036.358" style="opacity:0.32;fill:#A6A6A6;" width="117.936" height="115.555"/>
		<rect x="109.795" y="1036.358" style="opacity:0.88;fill:#A6A6A6;" width="117.936" height="115.555"/>
		<rect x="227.731" y="1036.358" style="opacity:0.42;fill:#A6A6A6;" width="117.936" height="115.555"/>
		<rect x="345.667" y="1036.358" style="opacity:0.57;fill:#A6A6A6;" width="117.936" height="115.555"/>
		<rect x="463.603" y="1036.358" style="opacity:0.05;fill:#A6A6A6;" width="117.936" height="115.555"/>
		<rect x="581.539" y="1036.358" style="opacity:0.22;fill:#A6A6A6;" width="117.936" height="115.555"/>
		<rect x="699.476" y="1036.358" style="opacity:0.72;fill:#A6A6A6;" width="117.936" height="115.555"/>
		<rect x="817.412" y="1036.358" style="opacity:0.61;fill:#A6A6A6;" width="117.936" height="115.555"/>
		<rect x="935.348" y="1036.358" style="opacity:0;fill:#A6A6A6;" width="117.936" height="115.555"/>
		<rect x="1053.284" y="1036.358" style="opacity:0.38;fill:#A6A6A6;" width="117.936" height="115.555"/>
		<rect x="1171.22" y="1036.358" style="opacity:0.08;fill:#A6A6A6;" width="117.936" height="115.555"/>
		<rect x="1289.156" y="1036.358" style="opacity:0.34;fill:#A6A6A6;" width="117.936" height="115.555"/>
		<rect x="1407.093" y="1036.358" style="opacity:0.45;fill:#A6A6A6;" width="117.936" height="115.555"/>
		<rect x="1525.029" y="1036.358" style="opacity:0.17;fill:#A6A6A6;" width="117.936" height="115.555"/>
		<rect x="1642.965" y="1036.358" style="opacity:0.57;fill:#A6A6A6;" width="117.936" height="115.555"/>
		<rect x="1760.901" y="1036.358" style="opacity:0.57;fill:#A6A6A6;" width="117.936" height="115.555"/>
		<rect x="1878.837" y="1036.358" style="opacity:0.99;fill:#A6A6A6;" width="117.936" height="115.555"/>
		<rect x="1996.773" y="1036.358" style="opacity:0.91;fill:#A6A6A6;" width="117.936" height="115.555"/>
		<rect x="2114.71" y="1036.358" style="opacity:0.72;fill:#A6A6A6;" width="117.936" height="115.555"/>
		<rect x="2232.646" y="1036.358" style="opacity:0.19;fill:#A6A6A6;" width="117.936" height="115.555"/>
		<rect x="2350.582" y="1036.358" style="opacity:0.02;fill:#A6A6A6;" width="117.936" height="115.555"/>
		<rect x="2468.518" y="1036.358" style="opacity:0.62;fill:#A6A6A6;" width="117.936" height="115.555"/>
		<rect x="2586.454" y="1036.358" style="opacity:0.98;fill:#A6A6A6;" width="117.936" height="115.555"/>
		<rect x="2704.39" y="1036.358" style="opacity:0.29;fill:#A6A6A6;" width="117.936" height="115.555"/>
		<rect x="-126.078" y="1151.913" style="opacity:0.18;fill:#A6A6A6;" width="117.936" height="115.555"/>
		<rect x="-8.141" y="1151.913" style="opacity:0.15;fill:#A6A6A6;" width="117.936" height="115.555"/>
		<rect x="109.795" y="1151.913" style="opacity:0.41;fill:#A6A6A6;" width="117.936" height="115.555"/>
		<rect x="227.731" y="1151.913" style="opacity:0.9;fill:#A6A6A6;" width="117.936" height="115.555"/>
		<rect x="345.667" y="1151.913" style="opacity:0.49;fill:#A6A6A6;" width="117.936" height="115.555"/>
		<rect x="463.603" y="1151.913" style="opacity:0.11;fill:#A6A6A6;" width="117.936" height="115.555"/>
		<rect x="581.539" y="1151.913" style="opacity:0.93;fill:#A6A6A6;" width="117.936" height="115.555"/>
		<rect x="699.476" y="1151.913" style="opacity:0.16;fill:#A6A6A6;" width="117.936" height="115.555"/>
		<rect x="817.412" y="1151.913" style="opacity:0.8;fill:#A6A6A6;" width="117.936" height="115.555"/>
		<rect x="935.348" y="1151.913" style="opacity:0.63;fill:#A6A6A6;" width="117.936" height="115.555"/>
		<rect x="1053.284" y="1151.913" style="opacity:0.37;fill:#A6A6A6;" width="117.936" height="115.555"/>
		<rect x="1171.22" y="1151.913" style="opacity:0.68;fill:#A6A6A6;" width="117.936" height="115.555"/>
		<rect x="1289.156" y="1151.913" style="opacity:0.11;fill:#A6A6A6;" width="117.936" height="115.555"/>
		<rect x="1407.093" y="1151.913" style="opacity:0.9;fill:#A6A6A6;" width="117.936" height="115.555"/>
		<rect x="1525.029" y="1151.913" style="opacity:0.9;fill:#A6A6A6;" width="117.936" height="115.555"/>
		<rect x="1642.965" y="1151.913" style="opacity:0.6;fill:#A6A6A6;" width="117.936" height="115.555"/>
		<rect x="1760.901" y="1151.913" style="opacity:0.37;fill:#A6A6A6;" width="117.936" height="115.555"/>
		<rect x="1878.837" y="1151.913" style="opacity:0.57;fill:#A6A6A6;" width="117.936" height="115.555"/>
		<rect x="1996.773" y="1151.913" style="opacity:0.93;fill:#A6A6A6;" width="117.936" height="115.555"/>
		<rect x="2114.71" y="1151.913" style="opacity:0.31;fill:#A6A6A6;" width="117.936" height="115.555"/>
		<rect x="2232.646" y="1151.913" style="opacity:0.33;fill:#A6A6A6;" width="117.936" height="115.555"/>
		<rect x="2350.582" y="1151.913" style="opacity:0.71;fill:#A6A6A6;" width="117.936" height="115.555"/>
		<rect x="2468.518" y="1151.913" style="opacity:0.93;fill:#A6A6A6;" width="117.936" height="115.555"/>
		<rect x="2586.454" y="1151.913" style="opacity:0.41;fill:#A6A6A6;" width="117.936" height="115.555"/>
		<rect x="2704.39" y="1151.913" style="opacity:0.04;fill:#A6A6A6;" width="117.936" height="115.555"/>
		<rect x="-126.078" y="1267.468" style="opacity:0.6;fill:#A6A6A6;" width="117.936" height="115.555"/>
		<rect x="-8.141" y="1267.468" style="opacity:0.65;fill:#A6A6A6;" width="117.936" height="115.555"/>
		<rect x="109.795" y="1267.468" style="opacity:0.67;fill:#A6A6A6;" width="117.936" height="115.555"/>
		<rect x="227.731" y="1267.468" style="opacity:0.63;fill:#A6A6A6;" width="117.936" height="115.555"/>
		<rect x="345.667" y="1267.468" style="opacity:0.12;fill:#A6A6A6;" width="117.936" height="115.555"/>
		<rect x="463.603" y="1267.468" style="opacity:0.77;fill:#A6A6A6;" width="117.936" height="115.555"/>
		<rect x="581.539" y="1267.468" style="opacity:0.68;fill:#A6A6A6;" width="117.936" height="115.555"/>
		<rect x="699.476" y="1267.468" style="opacity:0.89;fill:#A6A6A6;" width="117.936" height="115.555"/>
		<rect x="817.412" y="1267.468" style="opacity:0.86;fill:#A6A6A6;" width="117.936" height="115.555"/>
		<rect x="935.348" y="1267.468" style="opacity:0.66;fill:#A6A6A6;" width="117.936" height="115.555"/>
		<rect x="1053.284" y="1267.468" style="opacity:0.99;fill:#A6A6A6;" width="117.936" height="115.555"/>
		<rect x="1171.22" y="1267.468" style="opacity:0.37;fill:#A6A6A6;" width="117.936" height="115.555"/>
		<rect x="1289.156" y="1267.468" style="opacity:0.64;fill:#A6A6A6;" width="117.936" height="115.555"/>
		<rect x="1407.093" y="1267.468" style="opacity:0.28;fill:#A6A6A6;" width="117.936" height="115.555"/>
		<rect x="1525.029" y="1267.468" style="opacity:0.33;fill:#A6A6A6;" width="117.936" height="115.555"/>
		<rect x="1642.965" y="1267.468" style="opacity:0.41;fill:#A6A6A6;" width="117.936" height="115.555"/>
		<rect x="1760.901" y="1267.468" style="opacity:0.91;fill:#A6A6A6;" width="117.936" height="115.555"/>
		<rect x="1878.837" y="1267.468" style="opacity:0.96;fill:#A6A6A6;" width="117.936" height="115.555"/>
		<rect x="1996.773" y="1267.468" style="opacity:0.76;fill:#A6A6A6;" width="117.936" height="115.555"/>
		<rect x="2114.71" y="1267.468" style="opacity:0.91;fill:#A6A6A6;" width="117.936" height="115.555"/>
		<rect x="2232.646" y="1267.468" style="opacity:0.32;fill:#A6A6A6;" width="117.936" height="115.555"/>
		<rect x="2350.582" y="1267.468" style="opacity:0.85;fill:#A6A6A6;" width="117.936" height="115.555"/>
		<rect x="2468.518" y="1267.468" style="opacity:0.34;fill:#A6A6A6;" width="117.936" height="115.555"/>
		<rect x="2586.454" y="1267.468" style="opacity:0.15;fill:#A6A6A6;" width="117.936" height="115.555"/>
		<rect x="2704.39" y="1267.468" style="opacity:0.17;fill:#A6A6A6;" width="117.936" height="115.555"/>
		<rect x="-126.078" y="1383.024" style="fill:#A6A6A6;" width="117.936" height="115.555"/>
		<rect x="-8.141" y="1383.024" style="opacity:0.19;fill:#A6A6A6;" width="117.936" height="115.555"/>
		<rect x="109.795" y="1383.024" style="opacity:0.7;fill:#A6A6A6;" width="117.936" height="115.555"/>
		<rect x="227.731" y="1383.024" style="opacity:0.04;fill:#A6A6A6;" width="117.936" height="115.555"/>
		<rect x="345.667" y="1383.024" style="opacity:0.92;fill:#A6A6A6;" width="117.936" height="115.555"/>
		<rect x="463.603" y="1383.024" style="opacity:0.52;fill:#A6A6A6;" width="117.936" height="115.555"/>
		<rect x="581.539" y="1383.024" style="opacity:0.41;fill:#A6A6A6;" width="117.936" height="115.555"/>
		<rect x="699.476" y="1383.024" style="opacity:0.04;fill:#A6A6A6;" width="117.936" height="115.555"/>
		<rect x="817.412" y="1383.024" style="opacity:0.25;fill:#A6A6A6;" width="117.936" height="115.555"/>
		<rect x="935.348" y="1383.024" style="opacity:0.37;fill:#A6A6A6;" width="117.936" height="115.555"/>
		<rect x="1053.284" y="1383.024" style="opacity:0.66;fill:#A6A6A6;" width="117.936" height="115.555"/>
		<rect x="1171.22" y="1383.024" style="opacity:0.42;fill:#A6A6A6;" width="117.936" height="115.555"/>
		<rect x="1289.156" y="1383.024" style="opacity:0.77;fill:#A6A6A6;" width="117.936" height="115.555"/>
		<rect x="1407.093" y="1383.024" style="opacity:0.96;fill:#A6A6A6;" width="117.936" height="115.555"/>
		<rect x="1525.029" y="1383.024" style="opacity:0.08;fill:#A6A6A6;" width="117.936" height="115.555"/>
		<rect x="1642.965" y="1383.024" style="opacity:0.56;fill:#A6A6A6;" width="117.936" height="115.555"/>
		<rect x="1760.901" y="1383.024" style="opacity:0.05;fill:#A6A6A6;" width="117.936" height="115.555"/>
		<rect x="1878.837" y="1383.024" style="opacity:0.98;fill:#A6A6A6;" width="117.936" height="115.555"/>
		<rect x="1996.773" y="1383.024" style="opacity:0.52;fill:#A6A6A6;" width="117.936" height="115.555"/>
		<rect x="2114.71" y="1383.024" style="opacity:0.33;fill:#A6A6A6;" width="117.936" height="115.555"/>
		<rect x="2232.646" y="1383.024" style="opacity:0.28;fill:#A6A6A6;" width="117.936" height="115.555"/>
		<rect x="2350.582" y="1383.024" style="opacity:0.06;fill:#A6A6A6;" width="117.936" height="115.555"/>
		<rect x="2468.518" y="1383.024" style="opacity:0.7;fill:#A6A6A6;" width="117.936" height="115.555"/>
		<rect x="2586.454" y="1383.024" style="opacity:0.79;fill:#A6A6A6;" width="117.936" height="115.555"/>
		<rect x="2704.39" y="1383.024" style="opacity:0.4;fill:#A6A6A6;" width="117.936" height="115.555"/>
		<rect x="-126.078" y="1498.578" style="opacity:0.64;fill:#A6A6A6;" width="117.936" height="115.555"/>
		<rect x="-8.141" y="1498.578" style="opacity:0.39;fill:#A6A6A6;" width="117.936" height="115.555"/>
		<rect x="109.795" y="1498.578" style="opacity:0.07;fill:#A6A6A6;" width="117.936" height="115.555"/>
		<rect x="227.731" y="1498.578" style="opacity:0.93;fill:#A6A6A6;" width="117.936" height="115.555"/>
		<rect x="345.667" y="1498.578" style="opacity:0.28;fill:#A6A6A6;" width="117.936" height="115.555"/>
		<rect x="463.603" y="1498.578" style="opacity:0.45;fill:#A6A6A6;" width="117.936" height="115.555"/>
		<rect x="581.539" y="1498.578" style="opacity:0.75;fill:#A6A6A6;" width="117.936" height="115.555"/>
		<rect x="699.476" y="1498.578" style="opacity:0.03;fill:#A6A6A6;" width="117.936" height="115.555"/>
		<rect x="817.412" y="1498.578" style="fill:#A6A6A6;" width="117.936" height="115.555"/>
		<rect x="935.348" y="1498.578" style="opacity:0.46;fill:#A6A6A6;" width="117.936" height="115.555"/>
		<rect x="1053.284" y="1498.578" style="opacity:0.12;fill:#A6A6A6;" width="117.936" height="115.555"/>
		<rect x="1171.22" y="1498.578" style="opacity:0.81;fill:#A6A6A6;" width="117.936" height="115.555"/>
		<rect x="1289.156" y="1498.578" style="opacity:0.39;fill:#A6A6A6;" width="117.936" height="115.555"/>
		<rect x="1407.093" y="1498.578" style="opacity:0.5;fill:#A6A6A6;" width="117.936" height="115.555"/>
		<rect x="1525.029" y="1498.578" style="opacity:0.03;fill:#A6A6A6;" width="117.936" height="115.555"/>
		<rect x="1642.965" y="1498.578" style="opacity:0.53;fill:#A6A6A6;" width="117.936" height="115.555"/>
		<rect x="1760.901" y="1498.578" style="opacity:0.24;fill:#A6A6A6;" width="117.936" height="115.555"/>
		<rect x="1878.837" y="1498.578" style="opacity:0.74;fill:#A6A6A6;" width="117.936" height="115.555"/>
		<rect x="1996.773" y="1498.578" style="opacity:0.56;fill:#A6A6A6;" width="117.936" height="115.555"/>
		<rect x="2114.71" y="1498.578" style="opacity:0.86;fill:#A6A6A6;" width="117.936" height="115.555"/>
		<rect x="2232.646" y="1498.578" style="opacity:0.4;fill:#A6A6A6;" width="117.936" height="115.555"/>
		<rect x="2350.582" y="1498.578" style="opacity:0.27;fill:#A6A6A6;" width="117.936" height="115.555"/>
		<rect x="2468.518" y="1498.578" style="opacity:0.04;fill:#A6A6A6;" width="117.936" height="115.555"/>
		<rect x="2586.454" y="1498.578" style="opacity:0.61;fill:#A6A6A6;" width="117.936" height="115.555"/>
		<rect x="2704.39" y="1498.578" style="opacity:0.44;fill:#A6A6A6;" width="117.936" height="115.555"/>
	</g>
</g>
<linearGradient id="SVGID_00000142169912164053137010000004060560210633026974_" gradientUnits="userSpaceOnUse" x1="0" y1="801.7838" x2="2806.2429" y2="801.7838">
	<stop  offset="0" style="stop-color:#FFFFFF"/>
	<stop  offset="1" style="stop-color:#000000"/>
</linearGradient>
<rect style="fill:url(#SVGID_00000142169912164053137010000004060560210633026974_);" width="2806.243" height="1603.568"/>
</svg>
